<mxfile host="app.diagrams.net" modified="2021-09-23T23:15:10.352Z" agent="5.0 (Windows NT 10.0; Win64; x64) AppleWebKit/537.36 (KHTML, like Gecko) Chrome/93.0.4577.82 Safari/537.36 Edg/93.0.961.52" etag="JI7NQTLprcQxoeeDUev5" version="15.3.1" type="github">
  <diagram name="Page-1" id="822b0af5-4adb-64df-f703-e8dfc1f81529">
    <mxGraphModel dx="1128" dy="662" grid="1" gridSize="10" guides="1" tooltips="1" connect="1" arrows="1" fold="1" page="1" pageScale="1" pageWidth="1100" pageHeight="850" background="none" math="0" shadow="0">
      <root>
        <mxCell id="0" />
        <mxCell id="1" parent="0" />
        <mxCell id="7d933b09d9755ecc-13" value="" style="ellipse;whiteSpace=wrap;html=1;rounded=0;shadow=0;comic=0;strokeWidth=1;fontFamily=Verdana;" parent="1" vertex="1">
          <mxGeometry x="765" y="261.9" width="152" height="138.1" as="geometry" />
        </mxCell>
        <mxCell id="7d933b09d9755ecc-15" value="" style="ellipse;whiteSpace=wrap;html=1;rounded=0;shadow=0;comic=0;strokeWidth=1;fontFamily=Verdana;" parent="1" vertex="1">
          <mxGeometry x="1022.9" y="440" width="160" height="180" as="geometry" />
        </mxCell>
        <mxCell id="7d933b09d9755ecc-19" value="" style="ellipse;whiteSpace=wrap;html=1;rounded=0;shadow=0;comic=0;strokeWidth=1;fontFamily=Verdana;" parent="1" vertex="1">
          <mxGeometry x="1290" y="261.9" width="142" height="130" as="geometry" />
        </mxCell>
        <mxCell id="7d933b09d9755ecc-22" style="rounded=0;html=1;labelBackgroundColor=none;startArrow=none;startFill=0;endArrow=block;endFill=1;strokeColor=#CC6600;strokeWidth=1;fontFamily=Verdana;fontSize=12;entryX=1.02;entryY=0.56;entryDx=0;entryDy=0;entryPerimeter=0;exitX=0;exitY=0.5;exitDx=0;exitDy=0;" parent="1" source="X0-I0YtTu0xQLcEAmgbd-14" target="X0-I0YtTu0xQLcEAmgbd-1" edge="1">
          <mxGeometry relative="1" as="geometry">
            <mxPoint x="1140" y="330" as="targetPoint" />
          </mxGeometry>
        </mxCell>
        <mxCell id="7d933b09d9755ecc-23" style="rounded=0;html=1;labelBackgroundColor=none;startArrow=none;startFill=0;endArrow=block;endFill=1;strokeColor=#CC6600;strokeWidth=1;fontFamily=Verdana;fontSize=12;entryX=-0.01;entryY=0.549;entryDx=0;entryDy=0;entryPerimeter=0;exitX=1;exitY=0.5;exitDx=0;exitDy=0;" parent="1" source="X0-I0YtTu0xQLcEAmgbd-13" target="X0-I0YtTu0xQLcEAmgbd-1" edge="1">
          <mxGeometry relative="1" as="geometry">
            <mxPoint x="890" y="380" as="sourcePoint" />
            <mxPoint x="1108" y="327.37354865085854" as="targetPoint" />
          </mxGeometry>
        </mxCell>
        <mxCell id="7d933b09d9755ecc-29" value="" style="edgeStyle=none;rounded=0;html=1;labelBackgroundColor=none;startArrow=none;startFill=0;endArrow=block;endFill=1;strokeWidth=1;fontFamily=Verdana;fontSize=12;exitX=0.061;exitY=0.284;exitDx=0;exitDy=0;exitPerimeter=0;" parent="1" source="7d933b09d9755ecc-19" target="X0-I0YtTu0xQLcEAmgbd-1" edge="1">
          <mxGeometry x="-0.1948" y="-14" relative="1" as="geometry">
            <mxPoint as="offset" />
            <mxPoint x="1410" y="296.9" as="sourcePoint" />
            <mxPoint x="1170.004" y="309.80000000000007" as="targetPoint" />
          </mxGeometry>
        </mxCell>
        <mxCell id="X0-I0YtTu0xQLcEAmgbd-1" value="" style="points=[];aspect=fixed;html=1;align=center;shadow=0;dashed=0;image;image=img/lib/allied_telesis/switch/Modular_Switch_SBx8106.svg;" vertex="1" parent="1">
          <mxGeometry x="1060" y="290" width="85.8" height="73.8" as="geometry" />
        </mxCell>
        <mxCell id="X0-I0YtTu0xQLcEAmgbd-2" value="" style="shape=image;verticalLabelPosition=bottom;labelBackgroundColor=none;verticalAlign=top;aspect=fixed;imageAspect=0;image=https://e7.pngegg.com/pngimages/826/12/png-clipart-computer-icons-linux-desktop-environment-client-linux-computer-network-computer.png;" vertex="1" parent="1">
          <mxGeometry x="735" y="307.85" width="60" height="60" as="geometry" />
        </mxCell>
        <mxCell id="X0-I0YtTu0xQLcEAmgbd-3" style="rounded=0;html=1;labelBackgroundColor=none;startArrow=none;startFill=0;endArrow=block;endFill=1;strokeColor=#CC6600;strokeWidth=1;fontFamily=Verdana;fontSize=12;exitX=0;exitY=0.5;exitDx=0;exitDy=0;entryX=1;entryY=0.5;entryDx=0;entryDy=0;entryPerimeter=0;" edge="1" parent="1" source="X0-I0YtTu0xQLcEAmgbd-15" target="X0-I0YtTu0xQLcEAmgbd-8">
          <mxGeometry relative="1" as="geometry">
            <mxPoint x="1653.0027545438302" y="382.42744156890194" as="sourcePoint" />
            <mxPoint x="1139.9999999999995" y="377.9999999999998" as="targetPoint" />
          </mxGeometry>
        </mxCell>
        <mxCell id="X0-I0YtTu0xQLcEAmgbd-4" value="" style="shape=image;verticalLabelPosition=bottom;labelBackgroundColor=none;verticalAlign=top;aspect=fixed;imageAspect=0;image=https://e7.pngegg.com/pngimages/826/12/png-clipart-computer-icons-linux-desktop-environment-client-linux-computer-network-computer.png;" vertex="1" parent="1">
          <mxGeometry x="1085.8000000000002" y="570" width="60" height="60" as="geometry" />
        </mxCell>
        <mxCell id="X0-I0YtTu0xQLcEAmgbd-5" value="" style="shape=image;verticalLabelPosition=bottom;labelBackgroundColor=none;verticalAlign=top;aspect=fixed;imageAspect=0;image=https://e7.pngegg.com/pngimages/826/12/png-clipart-computer-icons-linux-desktop-environment-client-linux-computer-network-computer.png;" vertex="1" parent="1">
          <mxGeometry x="1400" y="296.9" width="60" height="60" as="geometry" />
        </mxCell>
        <mxCell id="X0-I0YtTu0xQLcEAmgbd-6" value="" style="edgeStyle=none;rounded=0;html=1;labelBackgroundColor=none;startArrow=none;startFill=0;endArrow=block;endFill=1;strokeWidth=1;fontFamily=Verdana;fontSize=12;exitX=0.927;exitY=0.254;exitDx=0;exitDy=0;exitPerimeter=0;" edge="1" parent="1" source="7d933b09d9755ecc-13" target="X0-I0YtTu0xQLcEAmgbd-1">
          <mxGeometry x="-0.1948" y="-14" relative="1" as="geometry">
            <mxPoint as="offset" />
            <mxPoint x="1088" y="283.9999999999999" as="sourcePoint" />
            <mxPoint x="1108" y="309.9997999999998" as="targetPoint" />
          </mxGeometry>
        </mxCell>
        <mxCell id="X0-I0YtTu0xQLcEAmgbd-7" value="" style="edgeStyle=none;rounded=0;html=1;labelBackgroundColor=none;startArrow=none;startFill=0;endArrow=block;endFill=1;strokeWidth=1;fontFamily=Verdana;fontSize=12;entryX=0.48;entryY=1;entryDx=0;entryDy=0;entryPerimeter=0;exitX=0.5;exitY=0;exitDx=0;exitDy=0;" edge="1" parent="1" source="7d933b09d9755ecc-15" target="X0-I0YtTu0xQLcEAmgbd-1">
          <mxGeometry x="-0.1948" y="-14" relative="1" as="geometry">
            <mxPoint as="offset" />
            <mxPoint x="1103" y="430" as="sourcePoint" />
            <mxPoint x="1140.0000000000002" y="413.79918267665244" as="targetPoint" />
          </mxGeometry>
        </mxCell>
        <mxCell id="X0-I0YtTu0xQLcEAmgbd-8" value="" style="shape=mxgraph.cisco.storage.relational_database;sketch=0;html=1;pointerEvents=1;dashed=0;fillColor=#036897;strokeColor=#ffffff;strokeWidth=2;verticalLabelPosition=bottom;verticalAlign=top;align=center;outlineConnect=0;labelBackgroundColor=none;" vertex="1" parent="1">
          <mxGeometry x="1038.7" y="480" width="47.1" height="70" as="geometry" />
        </mxCell>
        <mxCell id="X0-I0YtTu0xQLcEAmgbd-9" value="SQL DB" style="text;html=1;align=center;verticalAlign=middle;resizable=0;points=[];autosize=1;strokeColor=none;fillColor=none;" vertex="1" parent="1">
          <mxGeometry x="962.9" y="500" width="60" height="20" as="geometry" />
        </mxCell>
        <mxCell id="X0-I0YtTu0xQLcEAmgbd-11" value="" style="edgeStyle=none;rounded=0;html=1;labelBackgroundColor=none;startArrow=none;startFill=0;endArrow=block;endFill=1;strokeWidth=1;fontFamily=Verdana;fontSize=12;fontColor=#CC6600;labelBorderColor=#FF8000;strokeColor=#CC6600;" edge="1" parent="1" source="X0-I0YtTu0xQLcEAmgbd-1" target="X0-I0YtTu0xQLcEAmgbd-8">
          <mxGeometry x="-0.1948" y="-14" relative="1" as="geometry">
            <mxPoint as="offset" />
            <mxPoint x="1080" y="370" as="sourcePoint" />
            <mxPoint x="989.5414000000001" y="369.5961999999999" as="targetPoint" />
          </mxGeometry>
        </mxCell>
        <mxCell id="X0-I0YtTu0xQLcEAmgbd-13" value="&amp;lt;/&amp;gt;" style="rounded=1;arcSize=5;fillColor=#0065FF;strokeColor=none;fontColor=#ffffff;align=center;verticalAlign=middle;whiteSpace=wrap;fontSize=14;fontStyle=1;html=1;sketch=0;labelBackgroundColor=none;" vertex="1" parent="1">
          <mxGeometry x="837" y="310.95" width="40" height="40" as="geometry" />
        </mxCell>
        <mxCell id="X0-I0YtTu0xQLcEAmgbd-14" value="&amp;lt;/&amp;gt;" style="rounded=1;arcSize=5;fillColor=#0065FF;strokeColor=none;fontColor=#ffffff;align=center;verticalAlign=middle;whiteSpace=wrap;fontSize=14;fontStyle=1;html=1;sketch=0;labelBackgroundColor=none;" vertex="1" parent="1">
          <mxGeometry x="1330" y="306.9" width="40" height="40" as="geometry" />
        </mxCell>
        <mxCell id="X0-I0YtTu0xQLcEAmgbd-15" value="&amp;lt;/&amp;gt;" style="rounded=1;arcSize=5;fillColor=#0065FF;strokeColor=none;fontColor=#ffffff;align=center;verticalAlign=middle;whiteSpace=wrap;fontSize=14;fontStyle=1;html=1;sketch=0;labelBackgroundColor=none;" vertex="1" parent="1">
          <mxGeometry x="1110" y="495" width="40" height="40" as="geometry" />
        </mxCell>
        <mxCell id="X0-I0YtTu0xQLcEAmgbd-16" value="Bash scripts" style="text;html=1;align=center;verticalAlign=middle;resizable=0;points=[];autosize=1;strokeColor=none;fillColor=none;" vertex="1" parent="1">
          <mxGeometry x="1090" y="535" width="80" height="20" as="geometry" />
        </mxCell>
        <mxCell id="X0-I0YtTu0xQLcEAmgbd-17" value="Bash scripts (agent)" style="text;html=1;align=center;verticalAlign=middle;resizable=0;points=[];autosize=1;strokeColor=none;fillColor=none;" vertex="1" parent="1">
          <mxGeometry x="795" y="346.9" width="120" height="20" as="geometry" />
        </mxCell>
        <mxCell id="X0-I0YtTu0xQLcEAmgbd-18" value="Bash scripts" style="text;html=1;align=center;verticalAlign=middle;resizable=0;points=[];autosize=1;strokeColor=none;fillColor=none;" vertex="1" parent="1">
          <mxGeometry x="1320" y="347.85" width="80" height="20" as="geometry" />
        </mxCell>
      </root>
    </mxGraphModel>
  </diagram>
</mxfile>
